<?xml version="1.0" standalone="no"?>
<!DOCTYPE svg PUBLIC "-//W3C//DTD SVG 20010904//EN"
 "http://www.w3.org/TR/2001/REC-SVG-20010904/DTD/svg10.dtd">
<svg version="1.0" xmlns="http://www.w3.org/2000/svg"
 width="700.000000pt" height="700.000000pt" viewBox="0 0 700.000000 700.000000"
 preserveAspectRatio="xMidYMid meet">
<metadata>
Created by potrace 1.14, written by Peter Selinger 2001-2017
</metadata>
<g transform="translate(0.000000,700.000000) scale(0.100000,-0.100000)"
fill="#000000" stroke="none">
<path d="M0 5315 l0 -1685 628 0 628 0 314 784 315 785 535 -1340 c294 -736
537 -1339 541 -1339 3 0 245 601 539 1335 294 734 537 1332 541 1328 4 -5 246
-604 537 -1333 292 -729 533 -1325 537 -1325 4 0 106 249 228 553 l221 552
718 0 718 0 0 1685 0 1685 -3500 0 -3500 0 0 -1685z"/>
<path d="M1867 4449 c-7 -19 -107 -269 -222 -556 l-209 -523 -718 0 -718 0 0
-1685 0 -1685 3500 0 3500 0 0 1685 0 1685 -628 0 -628 0 -314 -785 -314 -784
-16 37 c-8 20 -249 623 -535 1339 -286 717 -522 1303 -526 1303 -3 0 -245
-601 -539 -1335 -294 -734 -537 -1332 -541 -1328 -4 5 -245 602 -535 1328
-290 726 -530 1324 -535 1329 -4 5 -14 -7 -22 -25z"/>
</g>
</svg>
